<svg xmlns="http://www.w3.org/2000/svg"  viewBox="0 0 64 64" width="64px" height="64px"><linearGradient id="QJtw1jZ1ZKJyGOZzpPFhda" x1="32.012" x2="32.012" y1="9" y2="55" gradientUnits="userSpaceOnUse" spreadMethod="reflect"><stop offset="0" stop-color="#1a6dff"/><stop offset="1" stop-color="#c822ff"/></linearGradient><path fill="url(#QJtw1jZ1ZKJyGOZzpPFhda)" d="M50,55h-5.9c-0.906,0-1.426-0.652-1.929-1.283c-0.088-0.111-0.181-0.228-0.281-0.348 l-0.516,0.412C41.197,53.923,40.977,54,40.75,54h-5.5c-0.329,0-0.753,0.198-1.203,0.407C33.449,54.685,32.771,55,32,55h-3.3 c-1.063,0-1.888-0.759-2.424-1.463l-0.237,0.21C25.856,53.91,25.62,54,25.375,54H10c-0.315,0-0.612-0.149-0.801-0.402 c-0.189-0.252-0.247-0.58-0.158-0.882l0.926-3.125l-0.943-4.17c-0.038-0.168-0.032-0.343,0.018-0.508L10,41.728v-4.96l-0.732-0.787 C9.096,35.796,9,35.552,9,35.3v-4.4c0-0.261,0.102-0.512,0.284-0.698L10,29.468v-1.733c-0.16-0.729-1-4.715-1-7.834V11 c0-0.552,0.448-1,1-1h11c0.5,0,0.916,0.368,0.989,0.848c0.042,0.077,0.075,0.124,0.098,0.152h3.098c0.862,0,1.391-0.884,1.421-1.102 C26.673,9.402,27.1,9,27.6,9h7.7c0.552,0,1,0.448,1,1c0,0.358,0.272,0.751,0.488,1h1.069c0.509-1.328,1.225-2,2.943-2H47 c0.552,0,1,0.448,1,1v0.173C48.554,10,49.081,10,49.574,10h4.451c0.267,0,0.523,0.107,0.711,0.297s0.292,0.447,0.289,0.714 L55,13.311c-0.001,0.139-0.032,0.276-0.09,0.403l-0.861,1.895l0.911,4.062c0.016,0.072,0.024,0.145,0.024,0.219L55,25.4 c0,0.265-0.105,0.52-0.293,0.707l-0.955,0.955l-0.579,1.447l0.534,0.534C53.895,29.23,54,29.485,54,29.75v5.126l0.754,0.868 C54.913,35.926,55,36.159,55,36.4V53c0,0.308-0.142,0.599-0.385,0.788c-0.242,0.19-0.559,0.258-0.858,0.182L51,53.281V54 C51,54.552,50.552,55,50,55z M44.189,53H49v-1c0-0.308,0.142-0.599,0.385-0.788s0.561-0.256,0.858-0.182L53,51.719V36.774 l-0.754-0.868C52.087,35.724,52,35.491,52,35.25v-5.086l-0.707-0.707c-0.283-0.283-0.37-0.707-0.222-1.079l0.9-2.25 c0.05-0.125,0.126-0.24,0.222-0.335l0.806-0.806l-0.014-4.985l-0.96-4.283c-0.048-0.212-0.025-0.435,0.065-0.632l0.913-2.008 L53.014,12h-3.389c-0.885,0-1.224,0-1.911,0.7c-0.284,0.291-0.716,0.379-1.092,0.226C46.246,12.772,46,12.406,46,12v-1h-5.2 c-0.814,0-0.881,0-1.267,1.287C39.406,12.71,39.017,13,38.575,13h-2.2c-0.235,0-0.462-0.083-0.642-0.233 c-0.112-0.094-0.892-0.772-1.252-1.767h-6.166c-0.508,1.008-1.65,2-3.131,2H22c-0.487,0-1.135-0.187-1.653-1H11v7.9 c0,3.152,0.966,7.461,0.976,7.505C11.992,27.477,12,27.551,12,27.625v2.25c0,0.261-0.102,0.512-0.284,0.698L11,31.307v3.6 l0.732,0.787C11.904,35.879,12,36.122,12,36.375v5.5c0,0.098-0.014,0.194-0.042,0.288l-0.924,3.073l0.942,4.168 c0.038,0.167,0.032,0.34-0.017,0.504L11.339,52h13.655l0.841-0.748c0.236-0.208,0.555-0.295,0.863-0.232 c0.308,0.062,0.569,0.266,0.704,0.549C27.747,52.292,28.39,53,28.7,53H32c0.329,0,0.753-0.198,1.203-0.407 C33.801,52.315,34.479,52,35.25,52h5.149l0.976-0.781c0.397-0.32,0.971-0.287,1.332,0.074c0.443,0.442,0.768,0.85,1.028,1.177 C43.892,52.667,44.082,52.905,44.189,53z"/><linearGradient id="QJtw1jZ1ZKJyGOZzpPFhdb" x1="32" x2="32" y1="16.002" y2="47" gradientUnits="userSpaceOnUse" spreadMethod="reflect"><stop offset="0" stop-color="#6dc7ff"/><stop offset="1" stop-color="#e6abff"/></linearGradient><path fill="url(#QJtw1jZ1ZKJyGOZzpPFhdb)" d="M48.92,38.87l-3.2,7.52C45.56,46.76,45.2,47,44.8,47h-5.33c-0.3,0-0.58-0.13-0.77-0.36 L15.23,18.72c-0.22-0.27-0.29-0.63-0.18-0.95c0.1-0.33,0.37-0.58,0.71-0.67l4.26-1.07c0.3-0.07,0.62-0.01,0.86,0.18l27.73,21.48 C48.97,37.97,49.1,38.46,48.92,38.87z"/><linearGradient id="QJtw1jZ1ZKJyGOZzpPFhdc" x1="40.999" x2="40.999" y1="15.999" y2="27" gradientUnits="userSpaceOnUse" spreadMethod="reflect"><stop offset="0" stop-color="#6dc7ff"/><stop offset="1" stop-color="#e6abff"/></linearGradient><path fill="url(#QJtw1jZ1ZKJyGOZzpPFhdc)" d="M46.99,19.41l-1.11,6.75c-0.06,0.35-0.29,0.64-0.62,0.77C45.14,26.98,45.01,27,44.89,27 c-0.22,0-0.43-0.07-0.61-0.2l-8.88-6.75c-0.3-0.23-0.45-0.6-0.39-0.96c0.06-0.37,0.32-0.67,0.67-0.79l6.67-2.25 c0.29-0.1,0.62-0.05,0.88,0.12l3.33,2.25C46.88,18.64,47.05,19.03,46.99,19.41z"/><linearGradient id="QJtw1jZ1ZKJyGOZzpPFhdd" x1="21.498" x2="21.498" y1="34.998" y2="48" gradientUnits="userSpaceOnUse" spreadMethod="reflect"><stop offset="0" stop-color="#6dc7ff"/><stop offset="1" stop-color="#e6abff"/></linearGradient><path fill="url(#QJtw1jZ1ZKJyGOZzpPFhdd)" d="M27.97,45.03c-0.08,0.34-0.32,0.61-0.65,0.72l-6.6,2.2C20.61,47.98,20.51,48,20.4,48 c-0.21,0-0.42-0.07-0.6-0.2l-4.4-3.3c-0.33-0.25-0.48-0.68-0.36-1.07l2.2-7.7c0.1-0.35,0.37-0.61,0.71-0.7 c0.34-0.09,0.71,0.01,0.96,0.26l8.8,8.8C27.95,44.34,28.05,44.69,27.97,45.03z"/></svg>