<?xml version="1.0" encoding="UTF-8" standalone="no"?><!DOCTYPE svg PUBLIC "-//W3C//DTD SVG 1.1//EN" "http://www.w3.org/Graphics/SVG/1.1/DTD/svg11.dtd"><svg width="100%" height="100%" viewBox="0 0 2359 2171" version="1.1" xmlns="http://www.w3.org/2000/svg" xmlns:xlink="http://www.w3.org/1999/xlink" xml:space="preserve" xmlns:serif="http://www.serif.com/" style="fill-rule:evenodd;clip-rule:evenodd;stroke-linejoin:round;stroke-miterlimit:2;"><g><path d="M948.579,61.621c14.675,-16.867 30.554,-32.771 47.679,-47.667c120.588,-14.716 241.188,-14.866 361.788,0c16.896,14.671 32.575,30.488 47.1,47.413c33.229,2.708 55.746,6.141 61.279,10.27c105.2,78.534 173.45,170.475 149.896,284.359c76.608,4.096 164.429,9.704 246.746,16.987c40.633,-107.075 161.008,-339.408 193.475,-346.887c4.475,-1.029 271.166,2.116 290.787,28.096c33.55,44.425 -61.4,356.321 -126.837,556.845c67.341,73.834 69.866,202.655 -23.171,266.755c-1.425,59.562 -5.979,113.7 -14.304,155.225c-9.417,46.987 -187.704,61.625 -237.563,69.6c-512.546,81.933 -1189.33,77.908 -1697.83,-29.75c-101.221,-21.434 -81.183,-29.129 -88.788,-166.879c-0.387,-7.071 -0.633,-18.013 -0.695,-31.884c-85.655,-63.687 -84.2,-184.683 -22.617,-257.804c-65.475,-200.275 -162.396,-517.292 -128.558,-562.108c19.625,-25.98 286.316,-29.125 290.783,-28.096c34.392,7.921 176.379,243.9 214.975,345.421c77.358,-6.867 157.175,-12.021 228.917,-15.746c-12.025,-109.563 51.583,-203.883 145.275,-282.546c5.716,-4.8 28.333,-8.654 61.662,-11.604Z" style="fill:#815622;"/><path d="M2188.63,583.696c-1.879,-1.246 -3.791,-2.454 -5.737,-3.629c-6.746,-57.346 -15.483,-108.93 -25.617,-147.988c-6.25,-24.092 -120.321,-42.404 -257.917,-55.737c121.605,-183.596 67.813,-100.5 182.688,-281.954l196.325,11.85c-75.646,341.02 -64.713,261.791 -89.742,477.458Z" style="fill:#fdba11;"/><path d="M347.192,942.029c221.921,27.708 432.841,46.579 655.458,64.004c-251.267,20.4 -412.683,6.688 -655.458,-64.004Zm1650.87,0c-242.77,70.692 -404.191,84.404 -655.458,64.004c222.617,-17.425 433.533,-36.296 655.458,-64.004Zm0,-440.546c-221.925,-27.704 -432.841,-46.571 -655.458,-64c251.267,-20.395 412.688,-6.683 655.458,64Zm-1650.87,-2.741c242.775,-70.688 404.191,-84.4 655.458,-64c-222.617,17.425 -433.537,36.291 -655.458,64Zm555.341,172.754c89.071,-73.663 44.884,-35.113 132.813,-116.342c27.133,-28.175 122.133,-145.775 142.525,-146.833c21.679,-1.129 116.921,118.15 142.875,145.062c27.629,25.425 146.612,115.563 145.1,143.025c-1.146,20.8 -118.971,116.117 -146.742,142.754c-26.708,27.734 -121.967,145.475 -142.529,146.676c-32.671,1.9 -78.721,-75.159 -80.754,-77.476l-62.521,-67.574c-46.554,-45.2 -81.212,-76.905 -132.7,-116.7c-17.992,-13.101 -15.108,-39.563 1.933,-52.592Zm599.459,-320.946c-41.175,-88.137 -90.513,-171.237 -143.946,-244.312c-120.6,-11.092 -241.2,-10.98 -361.788,-0c-46.366,74.541 -95.35,158.354 -141.929,244.525c18.521,-0.684 35.646,-1.242 51.071,-1.684c-238.421,21.063 -436.825,48.142 -668.271,103.538c-4.571,37.683 -8.229,73.375 -11.021,107.795c12.421,-2.912 25.563,-4.583 39.425,-4.737c60.192,-0.671 73.134,179.408 67.067,226.679c-6.467,50.383 -16.342,71.871 -37.8,114.317c-5.25,12.825 -19.346,20.337 -33.346,16.729c-12.133,-1.633 -23.633,-3.671 -34.296,-6.821l-0.125,-0.033c2.467,30.216 5.488,61.383 9.046,93.996c570.146,121.721 1311.98,121.716 1882.12,-0c3.433,-31.759 6.325,-62.409 8.663,-92.329c-8.805,2.108 -18,3.879 -27.688,5.187c-13.729,3.533 -27.992,-3.625 -33.35,-16.729c-21.458,-42.446 -31.333,-63.929 -37.8,-114.317c-6.071,-47.271 6.871,-227.35 67.071,-226.679c11.046,0.133 21.629,1.225 31.767,3.129c-2.759,-33.937 -6.325,-68.846 -10.721,-105.258c-244.688,-58.371 -452.904,-85.621 -705.113,-106.192c14.196,0.308 46.846,1.354 90.959,3.196Z" style="fill:#fecd03;"/><path d="M347.192,498.742c242.775,-70.688 404.191,-84.4 655.458,-64c-222.617,17.425 -433.537,36.291 -655.458,64Zm1101.16,-252.23c-28.067,-49.616 -58.462,-96.729 -90.308,-140.274c-120.6,-11.092 -241.2,-10.98 -361.788,-0c-46.366,74.541 -95.35,158.354 -141.929,244.525c18.521,-0.684 35.646,-1.242 51.071,-1.684c-238.421,21.063 -436.825,48.142 -668.271,103.538c-4.571,37.683 -8.229,73.375 -11.021,107.795c12.421,-2.912 25.563,-4.583 39.425,-4.737c48.05,-0.533 65.992,114.108 68.184,184.433c2.083,-2.691 3.904,-5.062 5.383,-6.991c61.758,-80.68 84.171,-115.559 188.013,-137.317c33.454,-7.483 66.091,-15.304 98.779,-25.763c111.225,-35.562 101.87,-69.149 230.391,-80.22c121.338,-10.455 256.08,3.45 278.684,-142.121c12.512,-80.604 27.804,-149.125 127.954,-143.404c52.025,2.966 120.85,25.037 185.433,42.22Z" style="fill:#fcdd2d;"/><path d="M171.2,584.225c8.637,-89.033 22.221,-162.692 42.692,-168.437c57.758,-16.209 145.483,-28.95 241.475,-38.801c-122.159,-184.437 -68.104,-100.937 -183.117,-282.599l-196.329,11.85c76.121,343.154 64.566,260.749 90.208,481.508c1.742,-1.104 3.358,-2.375 5.071,-3.521Z" style="fill:#fdba11;"/><path d="M973.137,694.867c82.226,66.675 135.838,124.258 204.892,206.312c62.267,-76.258 127.017,-140.775 203.192,-203.15c-81.7,-68.621 -139.471,-122.129 -205.563,-203.892c-65.062,80.571 -121.92,133.146 -202.521,200.73Z" style="fill:#ed1668;"/><path d="M1113.59,827.233c20.855,22.813 41.826,47.067 64.442,73.946c62.267,-76.258 127.017,-140.775 203.192,-203.15c-25.529,-21.446 -48.738,-41.416 -70.575,-61.233l-0.742,-0.013c-108.479,0 -196.417,82.75 -196.417,184.83c0,1.887 0.038,3.758 0.1,5.62Z" style="fill:#db1a5b;"/><path d="M2108.53,854.858c-36.996,-82.045 -36.6,-158.004 1.775,-239.541c138.592,30.754 137.579,210.675 -1.775,239.541Zm-1856.44,0c37.004,-82.045 36.612,-158.004 -1.767,-239.541c-138.588,30.754 -137.575,210.675 1.767,239.541Z" style="fill:#b9d532;"/><path d="M1475.92,170.279c26.237,53.892 45.425,114.646 58.408,181.671l-0.058,-0c13.487,0.608 27.725,1.283 42.562,2.012c-3.712,-105.47 -35.654,-137.35 -100.912,-183.683Z" style="fill:#e19525;"/><path d="M819.271,352.142c10.525,-61.88 27.696,-119.096 51.983,-170.93c-58.4,46.126 -97.379,86.334 -110.15,173.58c20.229,-0.996 39.704,-1.884 58.167,-2.65Z" style="fill:#e19525;"/><path d="M1998.06,942.029c-242.77,70.692 -404.191,84.404 -655.458,64.004c222.617,-17.425 433.533,-36.296 655.458,-64.004Zm118.046,-384.912c3.642,0.458 7.225,1.025 10.763,1.687c-0.634,-7.762 -1.309,-15.575 -2.021,-23.442c-2.588,7.301 -5.563,14.542 -8.742,21.755Zm-1880.78,436.45l0.754,6.975c570.146,121.721 1311.98,121.716 1882.12,-0c3.433,-31.759 6.325,-62.409 8.663,-92.329c-8.805,2.108 -18,3.879 -27.688,5.187c-13.729,3.533 -27.992,-3.625 -33.35,-16.729c-21.458,-42.446 -31.333,-63.929 -37.8,-114.317c-2.529,-19.704 -1.754,-62.492 4.375,-105.65c-208.683,213.592 -696.183,363.413 -1264.31,363.413c-188.938,-0 -368.95,-16.58 -532.767,-46.55Z" style="fill:#f1b11c;"/><path d="M1084.43,702.204c34.213,28.488 58.48,54.267 87.746,88.738l6.954,84.754l-0.546,-3.867l12.617,-90.671c23.079,-26.654 47.196,-50.512 74.159,-73.496l93.637,-9.629l-86.417,-4.021c-33.304,-28.141 -58.562,-51.512 -85.504,-83.195l-14.008,-87.13l-2.759,81.755c-25.437,30.595 -48.912,53.091 -78.712,78.675l-89.021,10.058l5.517,-0.554l76.337,8.583Z" style="fill:#f495af;"/><path d="M1131.02,745.204c13.691,14.054 26.821,28.85 41.162,45.738l6.954,84.754l-0.546,-3.867l12.617,-90.671c23.079,-26.654 47.196,-50.512 74.159,-73.496l93.637,-9.629l-86.417,-4.021c-16.625,-14.049 -31.25,-26.908 -45.079,-40.212c-42.65,18.579 -77.033,51.121 -96.487,91.404Z" style="fill:#f2799b;"/><path d="M190.717,782.929c20.758,0 37.691,-27.742 37.691,-61.754c0,-34.012 -16.933,-61.754 -37.691,-61.754c-20.759,-0 -37.692,27.742 -37.692,61.754c0,34.012 16.933,61.754 37.692,61.754Z" style="fill:#cfdf60;"/><path d="M2160.69,781.863c20.758,-0 37.695,-27.738 37.695,-61.751c0,-34.012 -16.937,-61.754 -37.695,-61.754c-20.755,0 -37.688,27.742 -37.688,61.754c-0,34.013 16.933,61.751 37.688,61.751Z" style="fill:#cfdf60;"/></g></svg>